<svg xmlns:xlink="http://www.w3.org/1999/xlink" xmlns="http://www.w3.org/2000/svg" viewBox="0 0 337.82 56.19" width="337.82"  height="56.19" ><path d="M215.89 21.63c-3.13 0-6.06 2-8.16 5.24h-.1l.73-4.75h-2c-.3 2.15-.74 5-1.32 8.07l-4.7 25h2.1l1.88-10.13h.1a9.68 9.68 0 0 0 4.7 1c7.48 0 12.91-8.9 12.91-16.83-.03-3.83-1.71-7.6-6.14-7.6zm-6.6 22.6a7.45 7.45 0 0 1-4.55-1.32l1.52-8.07c1.32-7.09 5.67-11.35 9-11.35s4.55 3.13 4.55 5.92c0 6-4.31 14.82-10.49 14.82zM224.21 39c0 4.2 2.15 7.14 5.72 7.14 3.08 0 6.07-1.62 8.76-6.8h.09a47.59 47.59 0 0 0-.58 6.31h2.05a50.87 50.87 0 0 1 1-10.66l2.49-12.62a15.2 15.2 0 0 0-4.74-.69c-9.07-.05-14.79 9.24-14.79 17.32zm15.45-6.51c-1.12 6.07-5.43 11.79-9.24 11.79-3.18 0-4.06-2.74-4-5.82.05-7.39 5.33-14.92 12.08-14.92a8.52 8.52 0 0 1 2.84.34zM251.25 27.26h-.09c.29-2.06.49-3.62.63-5.14h-1.91a76.38 76.38 0 0 1-1.12 7.68l-3 15.8h2.1l2.25-11.94c1-5.13 4.4-9.78 7.48-9.78a2.93 2.93 0 0 1 .78.05l.44-2.25c-.24 0-.58-.05-.88-.05-2.93 0-5.26 2.5-6.68 5.63zM265.32 44.18c-1.47 0-2.1-.83-2.1-2.2a21.24 21.24 0 0 1 .48-4.06l2.6-14h5.52l.39-1.81h-5.52l1-5.13-2.34.92-.79 4.21h-3.42l-.34 1.81h3.37l-2.64 14a19.47 19.47 0 0 0-.54 4.3 3.55 3.55 0 0 0 3.25 3.78 3.21 3.21 0 0 0 .62 0 8.53 8.53 0 0 0 2.3-.34L267 44a5.36 5.36 0 0 1-1.68.18zM285.49 21.63c-3.23 0-6.16 1.86-8.22 5.28h-.1l.69-4.79h-2c-.19 1.81-.49 4.11-1 6.9l-3.13 16.58h2.1l2.3-12.47c1-5.68 5.48-9.59 8.61-9.59 2.88 0 3.86 1.76 3.86 4.21a19.63 19.63 0 0 1-.34 3.42l-2.74 14.43h2.1l2.7-14.43a19.15 19.15 0 0 0 .44-3.62c-.04-4.45-2.97-5.92-5.27-5.92zM305.59 21.63c-6.7 0-11.45 8.85-11.45 15.6 0 4.5 1.91 8.81 7.39 8.81a11.78 11.78 0 0 0 6.41-1.76l-.64-1.67a10.24 10.24 0 0 1-5.43 1.57 5.1 5.1 0 0 1-5.13-4 16.32 16.32 0 0 1-.2-5.87c7.68 0 14.53-1.62 14.53-7.58 0-2.6-1.62-5.1-5.48-5.1zm3.28 5.24c0 4.64-5.87 5.67-12 5.62 1.47-5.09 4.7-9 8.32-9 2.2 0 3.67 1.17 3.67 3.33zM324.86 23.93l.44-2.25c-.25 0-.59-.05-.88-.05-2.94 0-5.28 2.5-6.7 5.63h-.1c.29-2.06.49-3.62.64-5.14h-1.94c-.2 2.06-.54 4.7-1.13 7.68l-3 15.8h2.13l2.25-11.94c1-5.13 4.4-9.78 7.49-9.78a3.05 3.05 0 0 1 .8.05zM333.71 23.49a6.65 6.65 0 0 1 3.33 1l.78-1.81a7 7 0 0 0-3.86-1c-4.16 0-7.15 3-7.15 6.65a7.07 7.07 0 0 0 3.62 5.82c2.2 1.42 3.18 2.84 3.18 5.19a4.92 4.92 0 0 1-4.92 4.9h-.26a7.21 7.21 0 0 1-4.11-1.32l-.83 1.76a8.25 8.25 0 0 0 4.74 1.42c4.06 0 7.53-2.59 7.53-7.34a7.39 7.39 0 0 0-3.61-6.06c-1.91-1.32-3.18-2.55-3.18-4.75a4.47 4.47 0 0 1 4.48-4.46z"></path><path fill="#95BF46" d="M42.32 10.58a.54.54 0 0 0-.48-.45l-4.1-.08s-3.26-3.16-3.58-3.49A1.34 1.34 0 0 0 33 6.41l-1.64.51A11.14 11.14 0 0 0 30.54 5c-1.17-2.23-2.87-3.4-4.92-3.4h-.42l-.2-.21A4.28 4.28 0 0 0 21.59 0c-2.65.07-5.3 2-7.44 5.39a21.24 21.24 0 0 0-3 7.74L6 14.78c-1.54.48-1.59.53-1.79 2C4 17.88 0 49 0 49l33.74 5.77 14.58-3.59zM29.63 7.44L27 8.25a14.4 14.4 0 0 0-.8-4.83c2.05.36 3 2.66 3.46 4zm-4.31 1.34l-5.64 1.74A13.44 13.44 0 0 1 22.53 5a5.6 5.6 0 0 1 1.91-1.39 12.67 12.67 0 0 1 .88 5.17zm-3.62-7a2.75 2.75 0 0 1 1.6.42 7.49 7.49 0 0 0-2.09 1.58 15.37 15.37 0 0 0-3.5 7.32l-4.62 1.48c.91-4.27 4.48-10.67 8.58-10.8z"></path><path fill="#5F8E3E" d="M41.88 10.13l-4.1-.08s-3.26-3.16-3.58-3.49a.81.81 0 0 0-.46-.21v48.43l14.58-3.59-6-40.61a.54.54 0 0 0-.44-.45z"></path><path fill="#FFFFFF" d="M25.64 17.65L23.94 24a9.61 9.61 0 0 0-4.14-.72c-3.29.21-3.33 2.29-3.29 2.81.17 2.84 7.65 3.46 8.07 10.11.33 5.24-2.78 8.82-7.26 9.1A10.9 10.9 0 0 1 9 42.47l1.14-4.84s3 2.24 5.36 2.09a2.12 2.12 0 0 0 2.07-2.14v-.12c-.24-3.7-6.32-3.48-6.71-9.57-.32-5.11 3.05-10.32 10.48-10.79a9.11 9.11 0 0 1 4.3.55z"></path><path d="M68.18 31.21c-1.7-.92-2.57-1.7-2.57-2.76 0-1.36 1.21-2.23 3.1-2.23a10.85 10.85 0 0 1 4.16.92l1.55-4.75s-1.42-1.11-5.61-1.11c-5.84 0-9.88 3.34-9.88 8 0 2.66 1.89 4.69 4.4 6.15 2 1.16 2.76 2 2.76 3.19s-1 2.28-2.9 2.28a13.21 13.21 0 0 1-5.47-1.45l-1.65 4.74a12.64 12.64 0 0 0 6.59 1.65c6 0 10.31-3 10.31-8.28.03-2.78-2.18-4.85-4.79-6.35zM92.1 21.23a9 9 0 0 0-7.1 3.53h-.1l2.6-13.42h-6.68l-6.5 34.1H81l2.24-11.66c.87-4.4 3.15-7.12 5.28-7.12 1.5 0 2.08 1 2.08 2.47a16 16 0 0 1-.29 3l-2.52 13.36h6.68l2.62-13.8a24.66 24.66 0 0 0 .48-4.36c0-3.82-1.98-6.1-5.47-6.1zM112.68 21.23c-8 0-13.36 7.26-13.36 15.35 0 5.18 3.19 9.35 9.2 9.35 7.89 0 13.22-7.07 13.22-15.35 0-4.8-2.81-9.35-9.06-9.35zm-3.29 19.55c-2.28 0-3.25-1.93-3.25-4.35 0-3.83 2-10.08 5.62-10.08 2.37 0 3.15 2 3.15 4 0 4.15-1.99 10.43-5.52 10.43zM138.83 21.23c-4.51 0-7.07 4-7.07 4h-.1l.39-3.58h-5.91c-.29 2.42-.82 6.1-1.35 8.86L120.14 55h6.68l1.84-9.87h.15a7.74 7.74 0 0 0 3.92.87c7.85 0 13-8 13-16.18-.02-4.57-2.01-8.59-6.9-8.59zm-6.39 19.66a4.22 4.22 0 0 1-2.76-1l1.11-6.24c.78-4.17 3-6.93 5.28-6.93 2 0 2.67 1.89 2.67 3.68 0 4.38-2.57 10.49-6.3 10.49zM155.25 11.64a3.82 3.82 0 0 0-3.83 3.81v.07a3.09 3.09 0 0 0 2.81 3.33h.44a3.78 3.78 0 0 0 3.92-3.64V15a3.18 3.18 0 0 0-3-3.34zM145.9 45.44h6.69l4.55-23.68h-6.73l-4.51 23.68zM174.14 21.71h-4.65l.24-1.11c.39-2.28 1.74-4.31 4-4.31a6.73 6.73 0 0 1 2.13.34l1.31-5.23a8.66 8.66 0 0 0-3.63-.58 9.84 9.84 0 0 0-6.54 2.23 12.68 12.68 0 0 0-3.88 7.55l-.19 1.11h-3.1l-1 5h3.1L158.4 45.4h6.68l3.53-18.62h4.61zM190.21 21.78s-4.17 10.53-6 16.27h-.1c-.13-1.85-1.64-16.27-1.64-16.27h-7l4 21.75a1.4 1.4 0 0 1-.14 1.11 11.61 11.61 0 0 1-3.63 4 14.87 14.87 0 0 1-3.78 1.89l1.84 5.66a15.27 15.27 0 0 0 6.54-3.63c3-2.86 5.86-7.26 8.76-13.27l8.13-17.51z"></path></svg>